<svg xmlns="http://www.w3.org/2000/svg" viewBox="0 0 692.12 133.48"><defs><style>.cls-1{fill:#7cb1b2;}.cls-2{fill:#fff;}.cls-3,.cls-4{fill:#818181;}.cls-4{stroke:#818181;stroke-miterlimit:10;stroke-width:3px;}</style></defs><title>Asset 1</title><g id="Layer_2" data-name="Layer 2"><g id="Layer_1-2" data-name="Layer 1"><rect class="cls-1" y="8.76" width="110.71" height="110.71" rx="9"/><g id="Original"><g id="Leaves"><g id="_1st_Leaf" data-name="1st Leaf"><path class="cls-2" d="M35.72,90.32c-8.5-6.21-32.51-28.65-12.8-59.92a.39.39,0,0,0-.48-.57C16.29,32.4,12.2,40.76,10.17,46.68,5.25,61,7.14,78.06,16.84,89.74c9.54,11.47,38.85,19.18,38.85,19.16C53.5,98.5,43.42,95.94,35.72,90.32Z"/><path class="cls-2" d="M101.2,46.68c-2-5.94-6.13-14.32-12.31-16.87a.39.39,0,0,0-.48.56C107,61.66,84.15,84.11,75.65,90.32c-7.69,5.62-17.77,8.18-20,18.58,0,0,29.3-7.69,38.84-19.16C104.24,78.06,106.12,61,101.2,46.68Z"/></g><g id="_2nd_Leaf" data-name="2nd Leaf"><path id="_2nd_Leaf-2" data-name="2nd Leaf" class="cls-2" d="M55.7,98.75c-.31-13.59-44.37-26.17-21.81-58.3.77-.82-1.18,0-1.71.46-28.62,22,4.7,52.4,23,57.44a1,1,0,0,1,.5.46Z"/><path id="_2nd_Leaf-3" data-name="2nd Leaf" class="cls-2" d="M55.82,98.75c.32-13.59,44.37-26.17,21.81-58.3-.76-.82,1.18,0,1.71.46,28.62,22-4.69,52.4-23,57.44a.92.92,0,0,0-.49.46Z"/></g></g><g id="Hearts"><path id="Bottom_Heart" data-name="Bottom Heart" class="cls-2" d="M52.4,78.81h0c-1.77-2.22-3.8-4.16-5.7-6.24-3.31-3.62-6.54-7.9-5.78-13.39.58-4.16,3.5-7.74,7.93-7.52,5.71.29,6.2,7.73,6.2,7.73s2.19-6.71,7.84-7.92C68,50.37,74.2,59,68.73,67.53,64.8,73.66,56,81.57,55.83,84,55.91,82.94,53.07,79.65,52.4,78.81Z"/><path id="Middle_Heart" data-name="Middle Heart" class="cls-2" d="M54.14,51.05h0c-1-1.27-2.24-2.38-3.36-3.57-2-2.07-3.85-4.52-3.4-7.66.34-2.38,2.06-4.43,4.66-4.3,3.37.16,3.66,4.42,3.66,4.42S57,36.1,60.32,35.41c3-.63,6.66,4.3,3.43,9.18-2.31,3.51-7.49,8-7.59,9.43C56.2,53.41,54.53,51.53,54.14,51.05Z"/><path id="Top_Piece" data-name="Top Piece" class="cls-2" d="M56.13,35.56c-4.54,2.26-2.13-7.79-.75-10.26a.86.86,0,0,1,1.49,0C58.25,27.77,60.66,33.29,56.13,35.56Z"/></g></g><path class="cls-3" d="M120.5,40.76c0-16.86,12.42-28.38,28-28.38a24.66,24.66,0,0,1,21.05,10.86l-5.75,3.21a18.62,18.62,0,0,0-15.3-8c-11.76,0-20.89,9.21-20.89,22.29s9.13,22.29,20.89,22.29a18.41,18.41,0,0,0,15.3-8l5.84,3.21c-4.61,6.25-11.19,10.86-21.14,10.86C132.92,69.14,120.5,57.62,120.5,40.76Z"/><path class="cls-3" d="M202.92,63.63a17.17,17.17,0,0,1-13.16,5.51c-6.74,0-13.9-4.53-13.9-13.16,0-8.89,7.16-13.08,13.9-13.08,5.43,0,10,1.73,13.16,5.43V41.17c0-5.35-4.28-8.39-10-8.39a15.81,15.81,0,0,0-12.18,5.51L177.83,34a20.81,20.81,0,0,1,15.88-6.57c8.39,0,15.38,3.78,15.38,13.4V68.15h-6.17Zm0-11.35c-2.38-3.29-6.58-4.94-10.94-4.94-5.76,0-9.79,3.62-9.79,8.72s4,8.63,9.79,8.63c4.36,0,8.56-1.64,10.94-4.93Z"/><path class="cls-3" d="M221.43,28.42h6.17v6.42c3.21-4.2,7.81-7.24,13.24-7.24v6.33a11.17,11.17,0,0,0-2.47-.24c-3.78,0-9,3.12-10.77,6.33V68.15h-6.17Z"/><path class="cls-3" d="M265.85,27.44c12,0,19.08,9.37,19.08,21.3V50.3H252.77c.49,7.49,5.75,13.74,14.31,13.74a17.38,17.38,0,0,0,12.26-5l3,4c-3.95,4-9.3,6.09-15.8,6.09-11.76,0-20.23-8.48-20.23-20.9C246.27,36.73,254.49,27.44,265.85,27.44ZM252.77,45.78h26.07c-.08-5.93-4-13.25-13.08-13.25C257.29,32.53,253.1,39.69,252.77,45.78Z"/><path class="cls-3" d="M296.61,33.85H290V28.42h6.58v-3c0-8.23,4.6-12.92,11.51-12.92a11.46,11.46,0,0,1,6,1.4l-1.56,4.69a6.3,6.3,0,0,0-3.54-1c-4,0-6.25,2.8-6.25,7.82v3h8.06v5.43h-8.06v34.3h-6.17Zm20.48-16.29a4.16,4.16,0,0,1,8.31,0,4.16,4.16,0,1,1-8.31,0Zm1.07,10.86h6.17V68.15h-6.17Z"/><path class="cls-3" d="M353.94,27.44c12,0,19.08,9.37,19.08,21.3V50.3H340.86c.5,7.49,5.76,13.74,14.31,13.74a17.37,17.37,0,0,0,12.26-5l3,4c-3.95,4-9.29,6.09-15.79,6.09-11.76,0-20.24-8.48-20.24-20.9C334.36,36.73,342.59,27.44,353.94,27.44ZM340.86,45.78h26.08c-.09-5.93-4-13.25-13.08-13.25C345.39,32.53,341.19,39.69,340.86,45.78Z"/><path class="cls-3" d="M383,13.29h6.17V68.15H383Z"/><path class="cls-3" d="M430.27,62.23a16.72,16.72,0,0,1-13.41,6.91c-10.36,0-17.68-7.9-17.68-20.81,0-12.67,7.24-20.89,17.68-20.89a16.61,16.61,0,0,1,13.41,7V13.29h6.17V68.15h-6.17Zm0-22.87A14.92,14.92,0,0,0,418.34,33c-8,0-12.74,6.58-12.74,15.38s4.77,15.3,12.74,15.3a14.77,14.77,0,0,0,11.93-6.26Z"/><path class="cls-3" d="M124.54,81.65h12.33c6.32,0,9.92,4.44,9.92,9.62s-3.65,9.62-9.92,9.62h-9.52v13.66h-2.81Zm12,2.57h-9.23v14.1h9.23c4.34,0,7.25-2.91,7.25-7S140.92,84.22,136.58,84.22Z"/><path class="cls-3" d="M152.6,81.65h2.57v32.9H152.6Z"/><path class="cls-3" d="M173.27,90.13c7.25,0,11.24,5.78,11.24,12.63v.69H164.59c.24,5.18,3.69,9.47,9.32,9.47a10.45,10.45,0,0,0,7.79-3.3l1.33,1.67a12.27,12.27,0,0,1-9.32,3.85c-7,0-11.94-5.18-11.94-12.53C161.77,95.71,166.66,90.13,173.27,90.13Zm-8.68,11.3H181.9c-.05-4-2.72-9.08-8.68-9.08C167.59,92.35,164.78,97.29,164.59,101.43Z"/><path class="cls-3" d="M206.26,111.74a10.37,10.37,0,0,1-8.09,3.4c-4.1,0-8.34-2.81-8.34-7.94s4.2-7.89,8.34-7.89a10.3,10.3,0,0,1,8.09,3.4V97.88c0-3.55-2.86-5.48-6.41-5.48a9.27,9.27,0,0,0-7.45,3.51L191,94.13a11.57,11.57,0,0,1,9.17-4c4.83,0,8.68,2.32,8.68,7.65v16.77h-2.56Zm0-7.1a8.92,8.92,0,0,0-7.2-3.31c-3.95,0-6.51,2.52-6.51,5.92s2.56,5.87,6.51,5.87a8.91,8.91,0,0,0,7.2-3.26Z"/><path class="cls-3" d="M216.27,109.47A9.92,9.92,0,0,0,224,113c4,0,6.36-2,6.36-4.73,0-3.06-3.25-3.95-6.66-4.84-4-1-8.38-2-8.38-6.66,0-3.65,3.11-6.61,8.48-6.61a10.91,10.91,0,0,1,8.53,3.51l-1.43,1.82a8.68,8.68,0,0,0-7.1-3.15c-3.7,0-6,1.82-6,4.29,0,2.71,3.06,3.45,6.37,4.29,4.09,1,8.68,2.17,8.68,7.25,0,3.84-3,7-8.93,7-3.85,0-6.81-1.13-9.17-3.75Z"/><path class="cls-3" d="M254.58,111.74a10.35,10.35,0,0,1-8.08,3.4c-4.1,0-8.34-2.81-8.34-7.94s4.19-7.89,8.34-7.89a10.28,10.28,0,0,1,8.08,3.4V97.88c0-3.55-2.86-5.48-6.41-5.48a9.28,9.28,0,0,0-7.45,3.51l-1.43-1.78a11.6,11.6,0,0,1,9.18-4c4.83,0,8.68,2.32,8.68,7.65v16.77h-2.57Zm0-7.1a8.91,8.91,0,0,0-7.2-3.31c-3.94,0-6.51,2.52-6.51,5.92s2.57,5.87,6.51,5.87a8.9,8.9,0,0,0,7.2-3.26Z"/><path class="cls-3" d="M281.21,98.42c0-4.59-2.31-6-5.77-6a10.21,10.21,0,0,0-7.74,4.1v18h-2.57V90.73h2.57v3.6a12.06,12.06,0,0,1,8.58-4.2c4.83,0,7.5,2.37,7.5,7.75v16.67h-2.57Z"/><path class="cls-3" d="M292.26,110V93h-3.95V90.73h3.95V84.22h2.61v6.51h4.83V93h-4.83v16.58c0,1.92.79,3.25,2.47,3.25a3.72,3.72,0,0,0,2.66-1.13l1,2a5.37,5.37,0,0,1-4.05,1.48C293.79,115.14,292.26,113.22,292.26,110Z"/><path class="cls-3" d="M303.94,102.61c0-7,4.49-12.48,11.45-12.48s11.49,5.53,11.49,12.48-4.44,12.53-11.49,12.53S303.94,109.57,303.94,102.61Zm20.18,0c0-5.28-3.11-10.16-8.73-10.16s-8.68,4.88-8.68,10.16,3.15,10.21,8.68,10.21S324.12,107.94,324.12,102.61Z"/><path class="cls-3" d="M349.56,98.42c0-4.59-2.32-6-5.77-6a10.2,10.2,0,0,0-7.74,4.1v18h-2.57V90.73h2.57v3.6a12,12,0,0,1,8.58-4.2c4.83,0,7.5,2.37,7.5,7.75v16.67h-2.57Z"/><line class="cls-4" x1="468.69" x2="468.69" y2="133.48"/><path class="cls-3" d="M531.26,19.83,518.76,50.4h-1.88L504.43,19.83V50.4h-4.57V13.66h6.56l11.4,28,11.46-28h6.55V50.4h-4.57Z"/><path class="cls-3" d="M555.82,23.14c8,0,12.77,6.28,12.77,14.26v1.05H547.06c.33,5,3.85,9.2,9.58,9.2a11.62,11.62,0,0,0,8.21-3.36l2,2.7a14.45,14.45,0,0,1-10.57,4.07c-7.88,0-13.55-5.67-13.55-14C542.71,29.36,548.22,23.14,555.82,23.14Zm-8.76,12.28h17.46c-.06-4-2.7-8.87-8.76-8.87C550.09,26.55,547.28,31.35,547.06,35.42Z"/><path class="cls-3" d="M607.36,32.34c0-3.36-1.48-5.51-4.9-5.51a9.3,9.3,0,0,0-7.05,4.08V50.4h-4.13V32.34c0-3.36-1.43-5.51-4.9-5.51-2.7,0-5.56,2-7,4.13V50.4h-4.13V23.8h4.13v3.86a11.53,11.53,0,0,1,8.6-4.52c4.07,0,6.39,2.2,7.16,5a11.16,11.16,0,0,1,8.92-5c4.85,0,7.44,2.7,7.44,8V50.4h-4.14Z"/><path class="cls-3" d="M618.21,37.07c0-7.71,5.07-13.93,13.16-13.93s13.17,6.22,13.17,13.93-5.07,14-13.17,14S618.21,44.79,618.21,37.07Zm22,0c0-5.39-3.14-10.24-8.82-10.24s-8.86,4.85-8.86,10.24,3.19,10.3,8.86,10.3S640.19,42.53,640.19,37.07Z"/><path class="cls-3" d="M651.25,23.8h4.13v4.3a11.31,11.31,0,0,1,8.87-4.85v4.24a7.28,7.28,0,0,0-1.65-.17,9.73,9.73,0,0,0-7.22,4.25V50.4h-4.13Z"/><path class="cls-3" d="M670.86,57.51c1.81,0,3-.61,4-2.81l1.76-4L665.46,23.8h4.46l8.87,21.81L687.6,23.8h4.52l-13.33,32c-1.6,3.86-4.3,5.34-7.82,5.4a13.36,13.36,0,0,1-3-.39l.66-3.74A6.44,6.44,0,0,0,670.86,57.51Z"/><path class="cls-3" d="M498.38,98.15c0-11.3,8.31-19,18.72-19a16.51,16.51,0,0,1,14.1,7.27l-3.85,2.15a12.49,12.49,0,0,0-10.25-5.34c-7.87,0-14,6.17-14,14.93s6.12,14.92,14,14.92a12.33,12.33,0,0,0,10.25-5.34l3.91,2.15a16.73,16.73,0,0,1-14.16,7.27C506.69,117.15,498.38,109.44,498.38,98.15Z"/><path class="cls-3" d="M553.56,113.46a11.51,11.51,0,0,1-8.81,3.69c-4.52,0-9.31-3-9.31-8.81,0-6,4.79-8.76,9.31-8.76a11.12,11.12,0,0,1,8.81,3.63V98.42c0-3.58-2.86-5.62-6.72-5.62a10.58,10.58,0,0,0-8.15,3.69l-1.93-2.86a14,14,0,0,1,10.63-4.41c5.62,0,10.3,2.54,10.3,9v18.29h-4.13Zm0-7.6a8.9,8.9,0,0,0-7.33-3.31c-3.85,0-6.55,2.43-6.55,5.84s2.7,5.78,6.55,5.78a8.93,8.93,0,0,0,7.33-3.3Z"/><path class="cls-3" d="M566,89.88h4.13v4.3A11.31,11.31,0,0,1,579,89.33v4.24a7.42,7.42,0,0,0-1.66-.16,9.72,9.72,0,0,0-7.21,4.24v18.84H566Z"/><path class="cls-3" d="M595.69,89.22c8,0,12.78,6.28,12.78,14.27v1H586.93c.33,5,3.85,9.2,9.58,9.2a11.62,11.62,0,0,0,8.21-3.36l2,2.7a14.41,14.41,0,0,1-10.57,4.08c-7.88,0-13.55-5.68-13.55-14C582.58,95.45,588.09,89.22,595.69,89.22Zm-8.76,12.29h17.46c-.06-4-2.7-8.87-8.76-8.87C590,92.64,587.15,97.43,586.93,101.51Z"/></g></g></svg>